<svg width="23" height="22" viewBox="0 0 23 22" fill="none" xmlns="http://www.w3.org/2000/svg">
<path fill-rule="evenodd" clip-rule="evenodd" d="M10.4923 2.14359C5.86667 2.14359 2.03077 5.97949 2.03077 10.6051C2.03077 15.3436 5.75385 19.0667 10.4923 19.0667C15.1179 19.0667 18.9538 15.2308 18.9538 10.6051C18.9538 5.97949 15.2308 2.14359 10.4923 2.14359ZM0 10.6051C0 4.73846 4.73846 0 10.4923 0C16.359 0 20.9846 4.73846 20.9846 10.6051C20.9846 13.0872 20.0821 15.3436 18.7282 17.1487L21.7744 20.1949C22.2256 20.6462 22.2256 21.3231 21.7744 21.6615C21.3231 22.1128 20.6462 22.1128 20.3077 21.6615L17.2615 18.6154C15.4564 20.1949 13.0872 21.0974 10.4923 21.0974C4.73846 21.3231 0 16.4718 0 10.6051Z" fill="black"/>
</svg>
