<svg width="303" height="30" viewBox="0 0 303 30" fill="none" xmlns="http://www.w3.org/2000/svg">
<path d="M8.91273 1.77473C8.48176 1.20682 7.94305 0.752485 7.40433 0.468528C6.27304 -0.156176 5.034 -0.156176 3.84883 0.468528C3.25624 0.752485 2.7714 1.20682 2.34043 1.77473C1.90946 2.34264 1.53236 3.02414 1.263 3.87601C0.993645 4.67108 0.832031 5.57974 0.832031 6.65878V23.2986C0.832031 24.3777 0.993645 25.3431 1.20913 26.1382C1.47849 26.9333 1.85559 27.6716 2.28656 28.2395C2.71753 28.8074 3.25624 29.2617 3.84883 29.5457C4.44141 29.8296 5.034 30 5.62658 30C6.21916 30 6.86562 29.8296 7.40433 29.5457C7.99692 29.2617 8.48176 28.8074 8.9666 28.2395C9.39757 27.6716 9.77467 26.9901 10.044 26.1382C10.3134 25.3431 10.4211 24.3777 10.4211 23.2986V22.1628C10.4211 21.1406 9.82855 20.7998 9.23596 20.7998H8.37402C7.83531 20.7998 7.18885 21.1406 7.18885 22.1628V23.5826C7.18885 24.4912 7.02724 25.1727 6.70401 25.5703C6.38078 25.9678 6.05755 26.1382 5.62658 26.1382C5.19561 26.1382 4.81851 25.9678 4.49528 25.5703C4.22593 25.1159 4.06431 24.4912 4.06431 23.5826V6.43161C4.06431 5.52295 4.22593 4.84146 4.54915 4.38713C4.87238 3.98959 5.19561 3.81921 5.68045 3.81921C6.11142 3.81921 6.43465 3.98959 6.75788 4.38713C7.08111 4.78467 7.24272 5.46616 7.24272 6.43161V7.39707C7.24272 8.41931 7.83531 8.76006 8.42789 8.76006H9.23596C9.55919 8.76006 9.88242 8.58968 10.0979 8.36252C10.3134 8.13535 10.4211 7.7946 10.4211 7.39707V6.65878C10.4211 5.63654 10.3134 4.67108 10.044 3.87601C9.7208 3.02414 9.3437 2.34264 8.91273 1.77473Z" fill="#5083F3"/>
<path d="M23.8219 0.242188H22.7983C22.2058 0.242188 21.7748 0.639726 21.667 1.26443L18.8119 14.5536C18.758 14.8375 18.7041 15.0647 18.6502 15.2351C18.6502 15.0079 18.6502 14.724 18.6502 14.44V1.60518C18.6502 0.582935 18.0577 0.242188 17.4651 0.242188H16.6031C16.0644 0.242188 15.418 0.582935 15.418 1.60518V28.2971C15.418 29.3193 16.0106 29.6601 16.6031 29.6601H17.6267C18.2193 29.6601 18.6502 29.2625 18.758 28.6378L21.6132 15.2351C21.667 15.0079 21.7209 14.7808 21.7748 14.5536C21.7748 14.7808 21.7748 15.0079 21.7748 15.2919V28.2403C21.7748 29.2625 22.3674 29.6033 22.96 29.6033H23.8219C24.3606 29.6033 25.0071 29.2625 25.0071 28.2403V1.54839C25.0071 0.639726 24.4145 0.242188 23.8219 0.242188Z" fill="#5083F3"/>
<path d="M38.0386 14.6674C37.6076 14.0995 37.0689 13.6452 36.4763 13.3612C35.8837 13.0773 35.2911 12.9069 34.6985 12.9069H33.3517C33.2979 12.9069 33.2979 12.9069 33.2979 12.9069C33.2979 12.9069 33.244 12.7933 33.244 12.6797V4.3314C33.244 4.16103 33.244 4.10424 33.244 4.10424C33.244 4.10424 33.244 4.10424 33.2979 4.10424H37.4998C38.0386 4.10424 38.685 3.76349 38.685 2.74125V1.60542C38.685 0.583179 38.0924 0.242432 37.4998 0.242432H31.1969C30.6582 0.242432 30.0117 0.583179 30.0117 1.60542V28.2973C30.0117 29.3196 30.6043 29.6603 31.1969 29.6603H34.6985C35.2911 29.6603 35.8837 29.4899 36.4763 29.206C37.0689 28.8652 37.5537 28.4109 38.0386 27.843C38.4695 27.2751 38.8466 26.5368 39.116 25.6849C39.3853 24.8331 39.4931 23.8676 39.4931 22.8454V19.6083C39.4931 18.5292 39.3315 17.5638 39.116 16.7687C38.8466 15.9168 38.4695 15.2353 38.0386 14.6674ZM33.2979 16.7687C33.2979 16.7687 33.2979 16.7687 33.3517 16.7687H34.6985C35.1295 16.7687 35.4527 16.9391 35.776 17.3366C36.0992 17.7341 36.2608 18.4156 36.2608 19.3243V23.0725C36.2608 23.9812 36.0992 24.6627 35.776 25.0602C35.4527 25.4578 35.1295 25.6281 34.6985 25.6281H33.3517C33.2979 25.6281 33.2979 25.6281 33.2979 25.6281C33.2979 25.6281 33.244 25.5145 33.244 25.401V16.9959C33.244 16.8255 33.2979 16.7687 33.2979 16.7687Z" fill="#5083F3"/>
<path d="M52.8961 0.242188H51.8726C51.28 0.242188 50.849 0.639726 50.7413 1.26443L47.8861 14.5536C47.8322 14.8375 47.7783 15.0647 47.7245 15.2351C47.7245 15.0079 47.7245 14.724 47.7245 14.44V1.60518C47.7245 0.582935 47.1319 0.242188 46.5393 0.242188H45.6774C45.1386 0.242188 44.4922 0.582935 44.4922 1.60518V28.2971C44.4922 29.3193 45.0848 29.6601 45.6774 29.6601H46.7009C47.2935 29.6601 47.7245 29.2625 47.8322 28.6378L50.6874 15.2351C50.7413 15.0079 50.7951 14.7808 50.849 14.5536C50.849 14.7808 50.849 15.0079 50.849 15.2919V28.2403C50.849 29.2625 51.4416 29.6033 52.0342 29.6033H52.8961C53.4348 29.6033 54.0813 29.2625 54.0813 28.2403V1.54839C54.0813 0.639726 53.4348 0.242188 52.8961 0.242188Z" fill="#5083F3"/>
<path d="M67.1089 2.00272C66.6779 1.4348 66.1392 0.980474 65.5466 0.696518C64.954 0.412561 64.3614 0.242188 63.7688 0.242188H60.2672C59.7285 0.242188 59.082 0.582935 59.082 1.60518V28.2971C59.082 29.3193 59.6746 29.6601 60.2672 29.6601H61.1291C61.6679 29.6601 62.3143 29.3193 62.3143 28.2971V16.9388C62.3143 16.7684 62.3143 16.7117 62.3143 16.7117C62.3143 16.7117 62.3143 16.7117 62.3682 16.7117H63.7688C64.3614 16.7117 64.954 16.5413 65.5466 16.2573C66.1392 15.9734 66.6779 15.519 67.1089 14.9511C67.5398 14.3832 67.9169 13.7017 68.1863 12.8499C68.4556 12.0548 68.5634 11.0893 68.5634 10.0103V6.77318C68.5634 5.69415 68.4018 4.7287 68.1863 3.93362C67.8631 3.25213 67.5398 2.57063 67.1089 2.00272ZM62.3143 4.10399C62.3143 4.10399 62.3143 4.10399 62.3682 4.10399H63.7688C64.1998 4.10399 64.523 4.27437 64.8463 4.67191C65.1695 5.06945 65.3311 5.75094 65.3311 6.6596V10.4078C65.3311 11.3165 65.1695 11.998 64.8463 12.3955C64.523 12.7931 64.1998 12.9634 63.7688 12.9634H62.4221C62.3682 12.9634 62.3682 12.9634 62.3682 12.9634C62.3682 12.9634 62.3143 12.8499 62.3143 12.7363V4.33116C62.3143 4.16079 62.3682 4.10399 62.3143 4.10399Z" fill="#5083F3"/>
<path d="M81.5893 14.6672C81.1584 14.0993 80.6196 13.6449 80.0271 13.361C79.4345 13.077 78.8419 12.9066 78.2493 12.9066H76.9025C76.8487 12.9066 76.8487 12.9066 76.8487 12.9066C76.8487 12.9066 76.7948 12.7931 76.7948 12.6795V1.60518C76.7948 0.582935 76.2022 0.242188 75.6096 0.242188H74.7477C74.209 0.242188 73.5625 0.582935 73.5625 1.60518V28.2971C73.5625 29.3193 74.1551 29.6601 74.7477 29.6601H78.2493C78.8419 29.6601 79.4345 29.4897 80.0271 29.2057C80.6196 28.865 81.1045 28.4107 81.5893 27.8427C82.0203 27.2748 82.3974 26.5365 82.6668 25.6847C82.9361 24.8328 83.0439 23.8674 83.0439 22.8451V19.608C83.0439 18.529 82.8822 17.5635 82.6668 16.7684C82.3974 15.9166 82.0742 15.2351 81.5893 14.6672ZM79.8116 19.3241V23.0723C79.8116 23.9809 79.65 24.6624 79.3267 25.06C79.0035 25.4575 78.6803 25.6279 78.2493 25.6279H76.9025C76.8487 25.6279 76.8487 25.6279 76.8487 25.6279C76.8487 25.6279 76.7948 25.5143 76.7948 25.4007V16.9956C76.7948 16.8252 76.7948 16.7684 76.7948 16.7684C76.7948 16.7684 76.7948 16.7684 76.8487 16.7684H78.1954C78.6264 16.7684 78.9496 16.9388 79.2729 17.3364C79.65 17.7907 79.8116 18.4154 79.8116 19.3241Z" fill="#5083F3"/>
<path d="M196.386 1.76053C195.955 1.19262 195.417 0.738287 194.824 0.45433C194.231 0.170374 193.639 0 193.046 0H189.545C189.006 0 188.359 0.340748 188.359 1.36299V28.0549C188.359 29.0771 188.952 29.4179 189.545 29.4179H190.406C190.945 29.4179 191.592 29.0771 191.592 28.0549V16.6966C191.592 16.5263 191.592 16.4695 191.592 16.4695C191.592 16.4695 191.592 16.4695 191.646 16.4695H192.992C193.585 16.4695 194.177 16.2991 194.77 16.0151C195.363 15.7312 195.901 15.2769 196.332 14.7089C196.763 14.141 197.14 13.4595 197.41 12.6077C197.679 11.8126 197.787 10.8471 197.787 9.7681V6.531C197.787 5.45196 197.625 4.48651 197.41 3.69143C197.194 3.00994 196.817 2.32844 196.386 1.76053ZM191.646 4.08897C191.646 3.9186 191.646 3.86181 191.646 3.86181C191.646 3.86181 191.646 3.86181 191.699 3.86181H193.046C193.477 3.86181 193.8 4.03218 194.124 4.42972C194.447 4.82726 194.608 5.50875 194.608 6.41741V10.1656C194.608 11.0743 194.447 11.7558 194.124 12.1533C193.8 12.5509 193.477 12.7212 193.046 12.7212H191.699C191.646 12.7212 191.646 12.7212 191.646 12.7212C191.646 12.7212 191.592 12.6077 191.592 12.4941V4.08897H191.646Z" fill="#5083F3"/>
<path d="M213.132 27.203L210.008 1.19262C209.9 0.45433 209.469 0 208.823 0H207.153C206.506 0 206.075 0.45433 205.967 1.19262L202.843 27.203C202.789 27.6006 202.789 27.8277 202.789 27.8845C202.789 27.9981 202.789 28.0549 202.789 28.1117C202.789 28.9068 203.22 29.4179 203.974 29.4179H204.728C205.375 29.4179 205.806 28.9635 205.914 28.2253L206.506 23.0005C206.506 22.8301 206.56 22.8301 206.614 22.8301H209.523C209.523 22.8301 209.577 22.8869 209.577 23.0005L210.223 28.2253C210.331 28.9635 210.762 29.4179 211.408 29.4179H212.163C212.863 29.4179 213.348 28.9068 213.348 28.1117C213.348 28.0549 213.348 27.9981 213.348 27.8845C213.186 27.8277 213.132 27.6006 213.132 27.203ZM208.984 18.9683C208.984 19.0251 208.984 19.0819 208.984 19.0819C208.984 19.0819 208.93 19.0819 208.877 19.0819H207.045H206.991C206.991 19.0819 206.991 19.0251 206.991 18.9683C206.991 18.8547 206.991 18.5707 207.099 18.0596L207.907 11.0743C207.961 10.7903 207.961 10.5632 208.015 10.3928C208.068 10.62 208.068 10.8471 208.122 11.0743L208.93 18.0596C208.984 18.5707 208.984 18.7979 208.984 18.9683Z" fill="#5083F3"/>
<path d="M226.428 14.425C225.997 13.8571 225.459 13.4027 224.866 13.1188C224.274 12.8348 223.681 12.6645 223.088 12.6645H221.742C221.688 12.6645 221.688 12.6645 221.688 12.6645C221.688 12.6645 221.634 12.5509 221.634 12.4373V4.08897C221.634 3.9186 221.634 3.86181 221.634 3.86181C221.634 3.86181 221.634 3.86181 221.688 3.86181H225.782C226.321 3.86181 226.967 3.52106 226.967 2.49882V1.36299C226.967 0.340748 226.374 0 225.782 0H219.533C218.994 0 218.348 0.340748 218.348 1.36299V28.0549C218.348 29.0771 218.94 29.4179 219.533 29.4179H223.034C223.627 29.4179 224.22 29.2475 224.812 28.9636C225.405 28.6228 225.89 28.1685 226.374 27.6006C226.805 27.0326 227.183 26.2944 227.452 25.4425C227.721 24.5906 227.829 23.6252 227.829 22.6029V19.3658C227.829 18.2868 227.667 17.3213 227.452 16.5263C227.236 15.6744 226.859 14.9929 226.428 14.425ZM221.688 16.5263C221.688 16.5263 221.688 16.5263 221.742 16.5263H223.088C223.519 16.5263 223.843 16.6966 224.166 17.0942C224.489 17.4917 224.651 18.1732 224.651 19.0819V22.8301C224.651 23.7388 224.489 24.4202 224.166 24.8178C223.843 25.2153 223.519 25.3857 223.088 25.3857H221.742C221.688 25.3857 221.688 25.3857 221.688 25.3857C221.688 25.3857 221.634 25.2721 221.634 25.1585V16.7534C221.688 16.5831 221.688 16.5263 221.688 16.5263Z" fill="#5083F3"/>
<path d="M238.489 0H236.711C234.933 0 232.832 0.908661 232.832 5.16801V24.2499C232.832 28.5092 234.933 29.4179 236.711 29.4179H238.489C240.266 29.4179 242.367 28.5092 242.367 24.2499V5.2248C242.367 0.908661 240.266 0 238.489 0ZM239.189 4.94084V24.477C239.189 25.6129 238.758 25.6129 238.542 25.6129H236.711C236.441 25.6129 236.064 25.6129 236.064 24.477V4.94084C236.064 3.80502 236.495 3.80502 236.711 3.80502H238.489C238.758 3.86181 239.189 3.86181 239.189 4.94084Z" fill="#5083F3"/>
<path d="M256.252 0H248.548C248.01 0 247.363 0.340748 247.363 1.36299V2.44202C247.363 3.46427 247.956 3.80502 248.548 3.80502H250.649C250.703 3.80502 250.703 3.80502 250.703 3.80502C250.703 3.80502 250.757 3.9186 250.757 4.03218V28.0549C250.757 29.0771 251.35 29.4179 251.942 29.4179H252.804C253.343 29.4179 253.989 29.0771 253.989 28.0549V4.08897C253.989 3.9186 253.989 3.86181 253.989 3.86181C253.989 3.86181 253.989 3.86181 254.043 3.86181H256.252C256.791 3.86181 257.437 3.52106 257.437 2.49882V1.36299C257.383 0.397539 256.791 0 256.252 0Z" fill="#5083F3"/>
<path d="M272.781 27.203L269.656 1.19262C269.549 0.45433 269.118 0 268.471 0H266.801C266.155 0 265.724 0.45433 265.616 1.19262L262.491 27.203C262.437 27.6006 262.438 27.8277 262.438 27.8845C262.438 27.9981 262.438 28.0549 262.438 28.1117C262.438 28.9068 262.868 29.4179 263.623 29.4179H264.377C265.023 29.4179 265.454 28.9635 265.562 28.2253L266.155 23.0005C266.155 22.8301 266.208 22.8301 266.262 22.8301H269.171C269.171 22.8301 269.225 22.8869 269.225 23.0005L269.872 28.2253C269.979 28.9635 270.41 29.4179 271.057 29.4179H271.811C272.511 29.4179 272.996 28.9068 272.996 28.1117C272.996 28.0549 272.996 27.9981 272.996 27.8845C272.835 27.8277 272.835 27.6006 272.781 27.203ZM268.633 18.9683C268.633 19.0251 268.633 19.0819 268.633 19.0819C268.633 19.0819 268.579 19.0819 268.525 19.0819H266.693H266.639C266.639 19.0819 266.639 19.0251 266.639 18.9683C266.639 18.7979 266.693 18.4572 266.747 18.0596L267.555 11.0743C267.609 10.7903 267.609 10.5632 267.663 10.3928C267.717 10.62 267.717 10.8471 267.771 11.0743L268.579 18.0596C268.633 18.4572 268.633 18.7411 268.633 18.9683Z" fill="#5083F3"/>
<path d="M286.616 0H279.181C278.643 0 277.996 0.340748 277.996 1.36299V28.0549C277.996 29.0771 278.589 29.4179 279.181 29.4179H286.616C287.154 29.4179 287.801 29.0771 287.801 28.0549V27.0326C287.801 26.0104 287.208 25.6697 286.616 25.6697H281.282C281.228 25.6697 281.228 25.6697 281.228 25.6697C281.228 25.6697 281.175 25.5561 281.175 25.4425V16.7534C281.175 16.5831 281.175 16.5263 281.175 16.5263C281.175 16.5263 281.175 16.5263 281.228 16.5263H284.892C285.43 16.5263 286.077 16.1855 286.077 15.1633V14.0842C286.077 13.062 285.484 12.7212 284.892 12.7212H281.228C281.175 12.7212 281.175 12.7212 281.175 12.7212C281.175 12.7212 281.121 12.6077 281.121 12.4941V4.08897C281.121 3.9186 281.121 3.86181 281.121 3.86181C281.121 3.86181 281.121 3.86181 281.175 3.86181H286.508C287.046 3.86181 287.693 3.52106 287.693 2.49882V1.36299C287.747 0.397539 287.154 0 286.616 0Z" fill="#5083F3"/>
<path d="M301.686 0H293.982C293.443 0 292.797 0.340748 292.797 1.36299V2.44202C292.797 3.46427 293.389 3.80502 293.982 3.80502H296.083C296.137 3.80502 296.137 3.80502 296.137 3.80502C296.137 3.80502 296.191 3.9186 296.191 4.03218V28.0549C296.191 29.0771 296.783 29.4179 297.376 29.4179H298.238C298.777 29.4179 299.423 29.0771 299.423 28.0549V4.08897C299.423 3.9186 299.423 3.86181 299.423 3.86181C299.423 3.86181 299.423 3.86181 299.477 3.86181H301.686C302.224 3.86181 302.871 3.52106 302.871 2.49882V1.36299C302.817 0.397539 302.224 0 301.686 0Z" fill="#5083F3"/>
<path d="M135.407 4.89817C137.616 7.11303 139.878 9.44147 142.141 11.7131C142.141 11.7699 142.087 11.8835 142.087 11.9403C136.646 11.9403 131.151 11.9403 125.656 11.9403C125.656 13.9848 125.656 15.9157 125.656 17.9602C131.151 17.9602 136.646 17.9602 142.087 17.9602C142.141 18.0737 142.195 18.1873 142.195 18.2441C139.932 20.5726 137.67 22.8442 135.515 25.0591C136.915 26.5924 138.208 27.9554 139.393 29.2048C143.919 24.4344 148.498 19.6071 153.023 14.8934C148.498 10.123 143.919 5.29571 139.501 0.582031C138.154 1.94502 136.861 3.30801 135.407 4.89817Z" fill="#5083F3"/>
<path d="M92.2578 29.431C101.47 29.431 110.682 29.431 119.84 29.431C119.84 19.7197 119.84 10.122 119.84 0.410645C110.628 0.410645 101.47 0.410645 92.2578 0.410645C92.2578 10.122 92.2578 19.7765 92.2578 29.431Z" fill="#5083F3"/>
<path d="M180.12 5.12421L172.578 9.7243V0.637695H166.921V9.7243L159.433 5.12421L156.578 10.2354L164.12 14.8355L156.578 19.4356L159.433 24.5468L166.921 19.9467V29.2605H172.578V19.9467L180.12 24.5468L182.921 19.4356L175.379 14.8355L182.921 10.2354L180.12 5.12421Z" fill="#5083F3"/>
</svg>
