<svg width="96" height="31" viewBox="0 0 96 31" fill="none" xmlns="http://www.w3.org/2000/svg">
<path d="M45.6875 4.75064C48.0261 7.09576 50.4217 9.56115 52.8174 11.9664C52.8174 12.0265 52.7604 12.1468 52.7604 12.2069C46.9994 12.2069 41.1813 12.2069 35.3633 12.2069C35.3633 14.3717 35.3633 16.4161 35.3633 18.5808C41.1813 18.5808 46.9994 18.5808 52.7604 18.5808C52.8174 18.7011 52.8744 18.8214 52.8744 18.8815C50.4788 21.3469 48.0831 23.7521 45.8015 26.0973C47.2846 27.7208 48.6535 29.164 49.9084 30.4868C54.6997 25.4358 59.5481 20.3246 64.3394 15.3338C59.5481 10.2827 54.6997 5.17156 50.0225 0.180664C48.5965 1.62382 47.2275 3.06697 45.6875 4.75064Z" fill="#5083F3"/>
<path d="M0 30.7271C9.75378 30.7271 19.5076 30.7271 29.2043 30.7271C29.2043 20.4446 29.2043 10.2825 29.2043 0C19.4505 0 9.75378 0 0 0C0 10.2825 0 20.5048 0 30.7271Z" fill="#5083F3"/>
<path d="M93.0318 4.99158L85.0462 9.86222V0.241211H79.0571V9.86222L71.1286 4.99158L68.1055 10.4034L76.091 15.274L68.1055 20.1447L71.1286 25.5565L79.0571 20.6859V30.5474H85.0462V20.6859L93.0318 25.5565L95.9978 20.1447L88.0123 15.274L95.9978 10.4034L93.0318 4.99158Z" fill="#5083F3"/>
</svg>
